#tb 0: 1/25
#media_type 0: video
#codec_id 0: rawvideo
#dimensions 0: 352x288
#sar 0: 0/1
0,          0,          0,        1,   405504, 0x9aa27f83
0,          1,          1,        1,   405504, 0x40b53720
0,          2,          2,        1,   405504, 0x97addf93
0,          3,          3,        1,   405504, 0xbfd74b50
0,          4,          4,        1,   405504, 0x325798fe
0,          5,          5,        1,   405504, 0x2cce55a1
0,          6,          6,        1,   405504, 0xa96b452d
0,          7,          7,        1,   405504, 0x18cb4d36
0,          8,          8,        1,   405504, 0xce444132
0,          9,          9,        1,   405504, 0x69bf50aa
0,         10,         10,        1,   405504, 0x6b6a8d82
0,         11,         11,        1,   405504, 0x93bd8d0d
0,         12,         12,        1,   405504, 0xd4f73524
0,         13,         13,        1,   405504, 0x33d07124
0,         14,         14,        1,   405504, 0x46a6fbdd
0,         15,         15,        1,   405504, 0x84d5dfa7
0,         16,         16,        1,   405504, 0xae6837d4
0,         17,         17,        1,   405504, 0x86356b94
0,         18,         18,        1,   405504, 0x9a02920b
0,         19,         19,        1,   405504, 0xec700b8d
0,         20,         20,        1,   405504, 0x8ee223f0
0,         21,         21,        1,   405504, 0x7cb43e08
0,         22,         22,        1,   405504, 0xc189e074
0,         23,         23,        1,   405504, 0x7fce01a0
0,         24,         24,        1,   405504, 0x93c90d75
0,         25,         25,        1,   405504, 0x1935eb97
0,         26,         26,        1,   405504, 0xa399f002
0,         27,         27,        1,   405504, 0xf40cc3e6
0,         28,         28,        1,   405504, 0xcb41bdda
0,         29,         29,        1,   405504, 0x8ce4be64
0,         30,         30,        1,   405504, 0xa6ab2fc0
0,         31,         31,        1,   405504, 0xf86a18f3
0,         32,         32,        1,   405504, 0x1e9ae450
0,         33,         33,        1,   405504, 0xe4cbeb76
0,         34,         34,        1,   405504, 0xfcfeeca0
0,         35,         35,        1,   405504, 0xd1dfa13c
0,         36,         36,        1,   405504, 0x295c530e
0,         37,         37,        1,   405504, 0xa2fe49b0
0,         38,         38,        1,   405504, 0xe9e5778d
0,         39,         39,        1,   405504, 0x82b7f8a6
0,         40,         40,        1,   405504, 0xbacd53c9
0,         41,         41,        1,   405504, 0xa74e5a65
0,         42,         42,        1,   405504, 0x8a035769
0,         43,         43,        1,   405504, 0x9d328a56
0,         44,         44,        1,   405504, 0xdad1ef2d
0,         45,         45,        1,   405504, 0xf93bd088
0,         46,         46,        1,   405504, 0x6ab9d380
0,         47,         47,        1,   405504, 0xf9c6b15b
0,         48,         48,        1,   405504, 0x9e70e318
0,         49,         49,        1,   405504, 0xa305705c
